<?xml version="1.0" encoding="UTF-8"?>
<svg width="700pt" height="700pt" version="1.1" viewBox="0 0 700 700" xmlns="http://www.w3.org/2000/svg">
 <path d="m466.67 93.332h-70c0-16.672-8.8945-32.078-23.336-40.414-14.438-8.3359-32.227-8.3359-46.664 0-14.441 8.3359-23.336 23.742-23.336 40.414h-70c-18.562 0-36.367 7.375-49.496 20.504-13.129 13.129-20.504 30.934-20.504 49.496v233.34c0 18.562 7.375 36.367 20.504 49.496 13.129 13.129 30.934 20.504 49.496 20.504h233.34c18.562 0 36.367-7.375 49.496-20.504 13.129-13.129 20.504-30.934 20.504-49.496v-233.34c0-18.562-7.375-36.367-20.504-49.496-13.129-13.129-30.934-20.504-49.496-20.504zm46.668 303.33-0.003907 0.003907c-0.011719 12.371-4.9336 24.234-13.684 32.98-8.7461 8.75-20.609 13.672-32.98 13.684h-233.34c-12.371-0.011719-24.234-4.9336-32.98-13.684-8.75-8.7461-13.672-20.609-13.684-32.98v-233.34c0.011719-12.371 4.9336-24.234 13.684-32.98 8.7461-8.75 20.609-13.672 32.98-13.684h23.336c0 6.1875 2.457 12.121 6.832 16.496 4.375 4.3789 10.312 6.8359 16.5 6.8359h140c6.1875 0 12.125-2.457 16.5-6.8359 4.375-4.375 6.832-10.309 6.832-16.496h23.336c12.371 0.011719 24.234 4.9336 32.98 13.684 8.75 8.7461 13.672 20.609 13.684 32.98zm-70-105-0.003907 0.003907c0.003907 3.0938-1.2266 6.0625-3.4141 8.25s-5.1562 3.418-8.25 3.4141h-70v70c0 6.4453-5.2266 11.668-11.668 11.668s-11.668-5.2227-11.668-11.668v-70h-70c-6.4414 0-11.664-5.2227-11.664-11.664 0-6.4453 5.2227-11.668 11.664-11.668h70v-70c0-6.4414 5.2266-11.668 11.668-11.668s11.668 5.2266 11.668 11.668v70h70c3.0938 0 6.0625 1.2266 8.25 3.4141s3.418 5.1562 3.4141 8.2539z"/>
</svg>
